<mxfile host="Electron" agent="Mozilla/5.0 (Windows NT 10.0; Win64; x64) AppleWebKit/537.36 (KHTML, like Gecko) draw.io/28.0.6 Chrome/138.0.7204.100 Electron/37.2.3 Safari/537.36" version="28.0.6">
  <diagram name="Page-1" id="ygFcoyWYrslfsJ8aY2pr">
    <mxGraphModel dx="1042" dy="674" grid="1" gridSize="10" guides="1" tooltips="1" connect="1" arrows="1" fold="1" page="1" pageScale="1" pageWidth="850" pageHeight="1100" math="0" shadow="0">
      <root>
        <mxCell id="0" />
        <mxCell id="1" parent="0" />
        <mxCell id="LeyTQ-VIh-IyvVX9vQep-1" value="" style="rounded=0;whiteSpace=wrap;html=1;fillColor=none;dashed=1;" parent="1" vertex="1">
          <mxGeometry x="70" y="180" width="120" height="300" as="geometry" />
        </mxCell>
        <mxCell id="LeyTQ-VIh-IyvVX9vQep-2" value="Sources" style="rounded=1;whiteSpace=wrap;html=1;strokeColor=none;" parent="1" vertex="1">
          <mxGeometry x="93" y="170" width="70" height="20" as="geometry" />
        </mxCell>
        <mxCell id="LeyTQ-VIh-IyvVX9vQep-3" value="" style="rounded=1;whiteSpace=wrap;html=1;fillColor=none;strokeColor=#C09975;" parent="1" vertex="1">
          <mxGeometry x="230" y="210" width="110" height="270" as="geometry" />
        </mxCell>
        <mxCell id="LeyTQ-VIh-IyvVX9vQep-4" value="&lt;b&gt;Bronze Layer&lt;/b&gt;" style="rounded=1;whiteSpace=wrap;html=1;fillColor=#ffe6cc;strokeColor=#d79b00;" parent="1" vertex="1">
          <mxGeometry x="230" y="180" width="110" height="20" as="geometry" />
        </mxCell>
        <mxCell id="LeyTQ-VIh-IyvVX9vQep-5" value="&lt;font style=&quot;font-size: 9px;&quot;&gt;crm_sales_details&lt;/font&gt;" style="rounded=1;whiteSpace=wrap;html=1;strokeColor=#d79b00;fillColor=#ffe6cc;" parent="1" vertex="1">
          <mxGeometry x="233.75" y="250" width="102.5" height="20" as="geometry" />
        </mxCell>
        <mxCell id="LeyTQ-VIh-IyvVX9vQep-6" value="&lt;span style=&quot;font-size: 9px;&quot;&gt;crm_cust_info&lt;/span&gt;" style="rounded=1;whiteSpace=wrap;html=1;strokeColor=#d79b00;fillColor=#ffe6cc;" parent="1" vertex="1">
          <mxGeometry x="233.75" y="280" width="102.5" height="20" as="geometry" />
        </mxCell>
        <mxCell id="LeyTQ-VIh-IyvVX9vQep-7" value="&lt;span style=&quot;font-size: 9px;&quot;&gt;crm_prd_info&lt;/span&gt;" style="rounded=1;whiteSpace=wrap;html=1;strokeColor=#d79b00;fillColor=#ffe6cc;" parent="1" vertex="1">
          <mxGeometry x="233.75" y="310" width="102.5" height="20" as="geometry" />
        </mxCell>
        <mxCell id="LeyTQ-VIh-IyvVX9vQep-8" value="" style="image;aspect=fixed;html=1;points=[];align=center;fontSize=12;image=img/lib/azure2/general/Folder_Blank.svg;" parent="1" vertex="1">
          <mxGeometry x="105.82" y="274" width="44.36" height="36" as="geometry" />
        </mxCell>
        <mxCell id="LeyTQ-VIh-IyvVX9vQep-9" value="&lt;b&gt;CRM&lt;/b&gt;" style="text;html=1;align=center;verticalAlign=middle;whiteSpace=wrap;rounded=0;" parent="1" vertex="1">
          <mxGeometry x="98" y="305" width="60" height="30" as="geometry" />
        </mxCell>
        <mxCell id="LeyTQ-VIh-IyvVX9vQep-13" style="edgeStyle=orthogonalEdgeStyle;rounded=0;orthogonalLoop=1;jettySize=auto;html=1;entryX=0.004;entryY=0.303;entryDx=0;entryDy=0;entryPerimeter=0;" parent="1" source="LeyTQ-VIh-IyvVX9vQep-8" target="LeyTQ-VIh-IyvVX9vQep-3" edge="1">
          <mxGeometry relative="1" as="geometry" />
        </mxCell>
        <mxCell id="LeyTQ-VIh-IyvVX9vQep-15" style="edgeStyle=orthogonalEdgeStyle;rounded=0;orthogonalLoop=1;jettySize=auto;html=1;entryX=0.018;entryY=0.414;entryDx=0;entryDy=0;entryPerimeter=0;" parent="1" source="LeyTQ-VIh-IyvVX9vQep-8" target="LeyTQ-VIh-IyvVX9vQep-3" edge="1">
          <mxGeometry relative="1" as="geometry" />
        </mxCell>
        <mxCell id="LeyTQ-VIh-IyvVX9vQep-16" style="edgeStyle=orthogonalEdgeStyle;rounded=0;orthogonalLoop=1;jettySize=auto;html=1;entryX=0.011;entryY=0.193;entryDx=0;entryDy=0;entryPerimeter=0;" parent="1" source="LeyTQ-VIh-IyvVX9vQep-8" target="LeyTQ-VIh-IyvVX9vQep-3" edge="1">
          <mxGeometry relative="1" as="geometry" />
        </mxCell>
        <mxCell id="LeyTQ-VIh-IyvVX9vQep-17" value="&lt;font style=&quot;font-size: 9px;&quot;&gt;erp_cust_az12&lt;/font&gt;" style="rounded=1;whiteSpace=wrap;html=1;strokeColor=#d79b00;fillColor=#ffe6cc;" parent="1" vertex="1">
          <mxGeometry x="233.75" y="369" width="102.5" height="20" as="geometry" />
        </mxCell>
        <mxCell id="LeyTQ-VIh-IyvVX9vQep-18" value="&lt;span style=&quot;font-size: 9px;&quot;&gt;erp_loc_a101&lt;/span&gt;" style="rounded=1;whiteSpace=wrap;html=1;strokeColor=#d79b00;fillColor=#ffe6cc;" parent="1" vertex="1">
          <mxGeometry x="233.75" y="399" width="102.5" height="20" as="geometry" />
        </mxCell>
        <mxCell id="LeyTQ-VIh-IyvVX9vQep-19" value="&lt;span style=&quot;font-size: 9px;&quot;&gt;erp_px_cat_g1v2&lt;/span&gt;" style="rounded=1;whiteSpace=wrap;html=1;strokeColor=#d79b00;fillColor=#ffe6cc;" parent="1" vertex="1">
          <mxGeometry x="233.75" y="429" width="102.5" height="20" as="geometry" />
        </mxCell>
        <mxCell id="LeyTQ-VIh-IyvVX9vQep-30" value="" style="image;aspect=fixed;html=1;points=[];align=center;fontSize=12;image=img/lib/azure2/general/Folder_Blank.svg;" parent="1" vertex="1">
          <mxGeometry x="106.42999999999999" y="389" width="43.75" height="35.5" as="geometry" />
        </mxCell>
        <mxCell id="LeyTQ-VIh-IyvVX9vQep-31" value="&lt;b&gt;ERP&lt;/b&gt;" style="text;html=1;align=center;verticalAlign=middle;whiteSpace=wrap;rounded=0;" parent="1" vertex="1">
          <mxGeometry x="98" y="424.5" width="60" height="30" as="geometry" />
        </mxCell>
        <mxCell id="LeyTQ-VIh-IyvVX9vQep-32" style="edgeStyle=orthogonalEdgeStyle;rounded=0;orthogonalLoop=1;jettySize=auto;html=1;entryX=0;entryY=0.729;entryDx=0;entryDy=0;entryPerimeter=0;" parent="1" source="LeyTQ-VIh-IyvVX9vQep-30" target="LeyTQ-VIh-IyvVX9vQep-3" edge="1">
          <mxGeometry relative="1" as="geometry" />
        </mxCell>
        <mxCell id="LeyTQ-VIh-IyvVX9vQep-33" style="edgeStyle=orthogonalEdgeStyle;rounded=0;orthogonalLoop=1;jettySize=auto;html=1;entryX=-0.02;entryY=0.632;entryDx=0;entryDy=0;entryPerimeter=0;" parent="1" source="LeyTQ-VIh-IyvVX9vQep-30" target="LeyTQ-VIh-IyvVX9vQep-3" edge="1">
          <mxGeometry relative="1" as="geometry" />
        </mxCell>
        <mxCell id="LeyTQ-VIh-IyvVX9vQep-34" style="edgeStyle=orthogonalEdgeStyle;rounded=0;orthogonalLoop=1;jettySize=auto;html=1;entryX=0.001;entryY=0.854;entryDx=0;entryDy=0;entryPerimeter=0;" parent="1" source="LeyTQ-VIh-IyvVX9vQep-30" target="LeyTQ-VIh-IyvVX9vQep-3" edge="1">
          <mxGeometry relative="1" as="geometry" />
        </mxCell>
        <mxCell id="1qv2fpEwnzw17ocw0TtQ-1" value="" style="rounded=1;whiteSpace=wrap;html=1;fillColor=none;strokeColor=#666666;fontColor=#333333;" parent="1" vertex="1">
          <mxGeometry x="400" y="210" width="110" height="270" as="geometry" />
        </mxCell>
        <mxCell id="1qv2fpEwnzw17ocw0TtQ-2" value="&lt;b&gt;Silver Layer&lt;/b&gt;" style="rounded=1;whiteSpace=wrap;html=1;fillColor=#f5f5f5;strokeColor=#666666;fontColor=#333333;" parent="1" vertex="1">
          <mxGeometry x="400" y="180" width="110" height="20" as="geometry" />
        </mxCell>
        <mxCell id="1qv2fpEwnzw17ocw0TtQ-3" value="&lt;font style=&quot;font-size: 9px;&quot;&gt;crm_sales_details&lt;/font&gt;" style="rounded=1;whiteSpace=wrap;html=1;strokeColor=#666666;fillColor=#f5f5f5;fontColor=#333333;" parent="1" vertex="1">
          <mxGeometry x="403.75" y="250" width="102.5" height="20" as="geometry" />
        </mxCell>
        <mxCell id="1qv2fpEwnzw17ocw0TtQ-4" value="&lt;span style=&quot;font-size: 9px;&quot;&gt;crm_cust_info&lt;/span&gt;" style="rounded=1;whiteSpace=wrap;html=1;strokeColor=#666666;fillColor=#f5f5f5;fontColor=#333333;" parent="1" vertex="1">
          <mxGeometry x="403.75" y="280" width="102.5" height="20" as="geometry" />
        </mxCell>
        <mxCell id="1qv2fpEwnzw17ocw0TtQ-5" value="&lt;span style=&quot;font-size: 9px;&quot;&gt;crm_prd_info&lt;/span&gt;" style="rounded=1;whiteSpace=wrap;html=1;strokeColor=#666666;fillColor=#f5f5f5;fontColor=#333333;" parent="1" vertex="1">
          <mxGeometry x="403.75" y="310" width="102.5" height="20" as="geometry" />
        </mxCell>
        <mxCell id="1qv2fpEwnzw17ocw0TtQ-6" value="&lt;span style=&quot;color: rgb(0, 0, 0); font-size: 9px;&quot;&gt;erp_cust_az12&lt;/span&gt;" style="rounded=1;whiteSpace=wrap;html=1;strokeColor=#666666;fillColor=#f5f5f5;fontColor=#333333;" parent="1" vertex="1">
          <mxGeometry x="403.75" y="369" width="102.5" height="20" as="geometry" />
        </mxCell>
        <mxCell id="1qv2fpEwnzw17ocw0TtQ-7" value="&lt;span style=&quot;color: rgb(0, 0, 0); font-size: 9px;&quot;&gt;erp_loc_a101&lt;/span&gt;" style="rounded=1;whiteSpace=wrap;html=1;strokeColor=#666666;fillColor=#f5f5f5;fontColor=#333333;" parent="1" vertex="1">
          <mxGeometry x="403.75" y="399" width="102.5" height="20" as="geometry" />
        </mxCell>
        <mxCell id="1qv2fpEwnzw17ocw0TtQ-8" value="&lt;span style=&quot;color: rgb(0, 0, 0); font-size: 9px;&quot;&gt;erp_px_cat_g1v2&lt;/span&gt;" style="rounded=1;whiteSpace=wrap;html=1;strokeColor=#666666;fillColor=#f5f5f5;fontColor=#333333;" parent="1" vertex="1">
          <mxGeometry x="403.75" y="429" width="102.5" height="20" as="geometry" />
        </mxCell>
        <mxCell id="1qv2fpEwnzw17ocw0TtQ-9" style="edgeStyle=orthogonalEdgeStyle;rounded=0;orthogonalLoop=1;jettySize=auto;html=1;entryX=0;entryY=0.5;entryDx=0;entryDy=0;" parent="1" source="LeyTQ-VIh-IyvVX9vQep-5" target="1qv2fpEwnzw17ocw0TtQ-3" edge="1">
          <mxGeometry relative="1" as="geometry" />
        </mxCell>
        <mxCell id="1qv2fpEwnzw17ocw0TtQ-10" style="edgeStyle=orthogonalEdgeStyle;rounded=0;orthogonalLoop=1;jettySize=auto;html=1;entryX=0;entryY=0.5;entryDx=0;entryDy=0;" parent="1" source="LeyTQ-VIh-IyvVX9vQep-6" target="1qv2fpEwnzw17ocw0TtQ-4" edge="1">
          <mxGeometry relative="1" as="geometry" />
        </mxCell>
        <mxCell id="1qv2fpEwnzw17ocw0TtQ-11" style="edgeStyle=orthogonalEdgeStyle;rounded=0;orthogonalLoop=1;jettySize=auto;html=1;entryX=0;entryY=0.5;entryDx=0;entryDy=0;" parent="1" source="LeyTQ-VIh-IyvVX9vQep-7" target="1qv2fpEwnzw17ocw0TtQ-5" edge="1">
          <mxGeometry relative="1" as="geometry" />
        </mxCell>
        <mxCell id="1qv2fpEwnzw17ocw0TtQ-12" style="edgeStyle=orthogonalEdgeStyle;rounded=0;orthogonalLoop=1;jettySize=auto;html=1;entryX=0;entryY=0.5;entryDx=0;entryDy=0;" parent="1" source="LeyTQ-VIh-IyvVX9vQep-17" target="1qv2fpEwnzw17ocw0TtQ-6" edge="1">
          <mxGeometry relative="1" as="geometry">
            <mxPoint x="390" y="380" as="targetPoint" />
          </mxGeometry>
        </mxCell>
        <mxCell id="1qv2fpEwnzw17ocw0TtQ-13" style="edgeStyle=orthogonalEdgeStyle;rounded=0;orthogonalLoop=1;jettySize=auto;html=1;entryX=0;entryY=0.5;entryDx=0;entryDy=0;" parent="1" source="LeyTQ-VIh-IyvVX9vQep-18" edge="1" target="1qv2fpEwnzw17ocw0TtQ-7">
          <mxGeometry relative="1" as="geometry">
            <mxPoint x="400" y="408" as="targetPoint" />
          </mxGeometry>
        </mxCell>
        <mxCell id="1qv2fpEwnzw17ocw0TtQ-14" style="edgeStyle=orthogonalEdgeStyle;rounded=0;orthogonalLoop=1;jettySize=auto;html=1;entryX=0;entryY=0.5;entryDx=0;entryDy=0;" parent="1" source="LeyTQ-VIh-IyvVX9vQep-19" target="1qv2fpEwnzw17ocw0TtQ-8" edge="1">
          <mxGeometry relative="1" as="geometry" />
        </mxCell>
        <mxCell id="LDKPnpcDg0T9S3YZecXg-1" value="" style="rounded=1;whiteSpace=wrap;html=1;fillColor=none;strokeColor=#d6b656;" vertex="1" parent="1">
          <mxGeometry x="561" y="210" width="110" height="270" as="geometry" />
        </mxCell>
        <mxCell id="LDKPnpcDg0T9S3YZecXg-2" value="&lt;b&gt;Gold Layer&lt;/b&gt;" style="rounded=1;whiteSpace=wrap;html=1;fillColor=#fff2cc;strokeColor=#d6b656;" vertex="1" parent="1">
          <mxGeometry x="561" y="180" width="110" height="20" as="geometry" />
        </mxCell>
        <mxCell id="LDKPnpcDg0T9S3YZecXg-3" value="&lt;font style=&quot;font-size: 9px;&quot;&gt;fact_sales&lt;/font&gt;" style="rounded=1;whiteSpace=wrap;html=1;strokeColor=#d6b656;fillColor=#fff2cc;" vertex="1" parent="1">
          <mxGeometry x="564.75" y="250" width="102.5" height="20" as="geometry" />
        </mxCell>
        <mxCell id="LDKPnpcDg0T9S3YZecXg-4" value="&lt;span style=&quot;font-size: 9px;&quot;&gt;dim_customers&lt;/span&gt;" style="rounded=1;whiteSpace=wrap;html=1;strokeColor=#d6b656;fillColor=#fff2cc;" vertex="1" parent="1">
          <mxGeometry x="564.75" y="349" width="102.5" height="20" as="geometry" />
        </mxCell>
        <mxCell id="LDKPnpcDg0T9S3YZecXg-5" value="&lt;span style=&quot;font-size: 9px;&quot;&gt;dim_products&lt;/span&gt;" style="rounded=1;whiteSpace=wrap;html=1;strokeColor=#d6b656;fillColor=#fff2cc;" vertex="1" parent="1">
          <mxGeometry x="564.75" y="399" width="102.5" height="20" as="geometry" />
        </mxCell>
        <mxCell id="LDKPnpcDg0T9S3YZecXg-10" style="edgeStyle=orthogonalEdgeStyle;rounded=0;orthogonalLoop=1;jettySize=auto;html=1;entryX=0;entryY=0.5;entryDx=0;entryDy=0;" edge="1" parent="1" source="1qv2fpEwnzw17ocw0TtQ-3" target="LDKPnpcDg0T9S3YZecXg-3">
          <mxGeometry relative="1" as="geometry" />
        </mxCell>
        <mxCell id="LDKPnpcDg0T9S3YZecXg-12" value="" style="endArrow=classic;html=1;rounded=0;entryX=0;entryY=0.5;entryDx=0;entryDy=0;exitX=1;exitY=0.5;exitDx=0;exitDy=0;jumpStyle=gap;" edge="1" parent="1" source="1qv2fpEwnzw17ocw0TtQ-4" target="LDKPnpcDg0T9S3YZecXg-4">
          <mxGeometry width="50" height="50" relative="1" as="geometry">
            <mxPoint x="506.25" y="350" as="sourcePoint" />
            <mxPoint x="556.25" y="300" as="targetPoint" />
          </mxGeometry>
        </mxCell>
        <mxCell id="LDKPnpcDg0T9S3YZecXg-13" value="" style="endArrow=classic;html=1;rounded=0;entryX=0;entryY=0.5;entryDx=0;entryDy=0;exitX=1;exitY=0.5;exitDx=0;exitDy=0;jumpStyle=gap;" edge="1" parent="1" source="1qv2fpEwnzw17ocw0TtQ-5" target="LDKPnpcDg0T9S3YZecXg-5">
          <mxGeometry width="50" height="50" relative="1" as="geometry">
            <mxPoint x="520" y="320" as="sourcePoint" />
            <mxPoint x="578" y="389" as="targetPoint" />
          </mxGeometry>
        </mxCell>
        <mxCell id="LDKPnpcDg0T9S3YZecXg-15" value="" style="endArrow=classic;html=1;rounded=0;entryX=0;entryY=0.5;entryDx=0;entryDy=0;exitX=1;exitY=0.5;exitDx=0;exitDy=0;jumpStyle=gap;" edge="1" parent="1" source="1qv2fpEwnzw17ocw0TtQ-6" target="LDKPnpcDg0T9S3YZecXg-4">
          <mxGeometry width="50" height="50" relative="1" as="geometry">
            <mxPoint x="540" y="380" as="sourcePoint" />
            <mxPoint x="598" y="469" as="targetPoint" />
          </mxGeometry>
        </mxCell>
        <mxCell id="LDKPnpcDg0T9S3YZecXg-16" value="" style="endArrow=classic;html=1;rounded=0;exitX=1;exitY=0.5;exitDx=0;exitDy=0;jumpStyle=gap;" edge="1" parent="1" source="1qv2fpEwnzw17ocw0TtQ-7">
          <mxGeometry width="50" height="50" relative="1" as="geometry">
            <mxPoint x="520" y="390" as="sourcePoint" />
            <mxPoint x="560" y="360" as="targetPoint" />
          </mxGeometry>
        </mxCell>
        <mxCell id="LDKPnpcDg0T9S3YZecXg-17" value="" style="endArrow=classic;html=1;rounded=0;exitX=1;exitY=0.5;exitDx=0;exitDy=0;entryX=0;entryY=0.5;entryDx=0;entryDy=0;jumpStyle=gap;" edge="1" parent="1" source="1qv2fpEwnzw17ocw0TtQ-8" target="LDKPnpcDg0T9S3YZecXg-5">
          <mxGeometry width="50" height="50" relative="1" as="geometry">
            <mxPoint x="540" y="459" as="sourcePoint" />
            <mxPoint x="594" y="410" as="targetPoint" />
          </mxGeometry>
        </mxCell>
        <mxCell id="LDKPnpcDg0T9S3YZecXg-18" value="&lt;font style=&quot;font-size: 50px;&quot;&gt;&lt;b&gt;Data Flow Diagram&lt;/b&gt;&lt;/font&gt;" style="text;html=1;align=center;verticalAlign=middle;whiteSpace=wrap;rounded=0;" vertex="1" parent="1">
          <mxGeometry x="130" y="80" width="489" height="30" as="geometry" />
        </mxCell>
      </root>
    </mxGraphModel>
  </diagram>
</mxfile>
